<?xml version="1.0" standalone="no"?>
<!DOCTYPE svg PUBLIC "-//W3C//DTD SVG 20010904//EN"
 "http://www.w3.org/TR/2001/REC-SVG-20010904/DTD/svg10.dtd">
<svg version="1.0" xmlns="http://www.w3.org/2000/svg"
 width="1536.000000pt" height="1024.000000pt" viewBox="0 0 1536.000000 1024.000000"
 preserveAspectRatio="xMidYMid meet">

<g transform="translate(0.000000,1024.000000) scale(0.100000,-0.100000)"
fill="#000000" stroke="none">
<path d="M1145 5825 l0 -1705 3303 0 3302 0 0 40 0 40 -3265 0 -3265 0 0 1630
0 1630 6315 0 6315 0 0 -1630 0 -1630 -520 0 -520 0 0 -40 0 -40 555 0 555 0
0 1705 0 1705 -6387 0 -6388 0 0 -1705z"/>
<path d="M10025 6111 c-106 -26 -165 -108 -165 -227 0 -117 41 -159 213 -220
39 -15 86 -37 104 -50 43 -32 60 -88 43 -138 -29 -89 -105 -129 -199 -106 -83
20 -123 64 -150 168 -21 75 -33 50 -29 -62 l3 -103 67 -18 c86 -22 201 -23
253 -1 144 61 191 256 85 357 -26 25 -64 45 -131 68 -150 52 -199 96 -199 178
0 93 123 163 209 119 39 -21 87 -77 101 -120 6 -20 15 -36 20 -36 8 0 19 178
11 185 -2 2 -11 -1 -20 -7 -13 -8 -35 -6 -82 6 -70 17 -87 18 -134 7z"/>
<path d="M2994 6101 c-60 -15 -124 -53 -160 -94 -129 -148 -133 -419 -9 -565
113 -134 339 -144 477 -23 45 39 92 131 109 209 15 75 6 193 -21 264 -27 72
-97 151 -163 185 -55 27 -173 40 -233 24z m164 -35 c42 -22 79 -67 98 -116 26
-68 32 -325 10 -411 -22 -85 -57 -136 -109 -160 -53 -23 -101 -24 -152 0 -54
24 -91 70 -112 139 -25 80 -25 324 -1 402 21 67 58 119 101 142 39 21 128 23
165 4z"/>
<path d="M4959 6083 c-9 -23 -171 -482 -228 -648 -17 -48 -19 -50 -59 -53 -29
-2 -42 -8 -42 -18 0 -11 20 -14 105 -14 58 0 105 4 105 9 0 10 -34 21 -68 21
-18 0 -22 4 -17 19 3 11 18 57 34 103 l28 83 120 3 120 3 33 -93 c18 -51 35
-98 37 -105 3 -8 -11 -13 -44 -15 -26 -2 -47 -7 -45 -13 1 -6 60 -10 152 -10
92 0 151 4 153 10 1 6 -17 11 -40 13 l-41 3 -38 107 c-222 627 -238 664 -265
595z m35 -313 c24 -69 47 -133 51 -142 7 -17 -2 -18 -105 -18 -84 0 -111 3
-108 13 2 6 25 79 53 160 34 101 52 142 57 130 4 -10 27 -74 52 -143z"/>
<path d="M10754 6063 c-9 -27 -67 -190 -128 -363 l-111 -315 -43 -3 c-28 -2
-42 -8 -42 -18 0 -11 20 -14 106 -14 80 0 105 3 102 13 -3 6 -24 13 -47 15
-48 4 -48 -8 1 130 l30 83 120 -3 121 -3 33 -95 c18 -52 33 -98 34 -102 0 -4
-19 -8 -42 -10 -23 -2 -43 -9 -46 -15 -3 -10 32 -13 153 -13 121 0 156 3 153
13 -3 6 -22 13 -44 15 l-40 3 -129 364 c-142 398 -148 410 -181 318z m-4 -154
c0 -6 23 -74 50 -151 28 -77 50 -141 50 -144 0 -2 -50 -4 -111 -4 -61 0 -109
4 -107 9 2 5 26 75 53 155 44 128 65 172 65 135z"/>
<path d="M1850 6091 c0 -11 35 -21 73 -21 l27 0 0 -345 0 -345 -50 0 c-38 0
-50 -4 -50 -15 0 -13 23 -15 153 -15 270 1 360 23 442 111 76 81 90 123 90
264 0 108 -3 125 -26 175 -47 101 -108 154 -209 184 -41 12 -100 16 -252 16
-109 0 -198 -4 -198 -9z m428 -43 c25 -12 54 -36 67 -57 66 -100 74 -384 15
-502 -40 -77 -104 -109 -222 -109 l-68 0 0 344 0 345 33 4 c54 7 130 -4 175
-25z"/>
<path d="M3580 6091 c0 -10 34 -21 68 -21 l22 0 0 -345 0 -345 -45 0 c-33 0
-45 -4 -45 -15 0 -12 20 -15 116 -15 88 0 115 3 112 13 -3 7 -26 13 -56 15
l-52 3 1 332 0 332 39 -100 c21 -55 82 -212 134 -349 53 -137 98 -251 101
-254 17 -17 44 43 154 339 68 184 128 341 132 349 5 8 9 -134 9 -317 l0 -332
-47 -3 c-26 -2 -48 -9 -51 -15 -3 -10 32 -13 152 -13 132 0 156 2 156 15 0 11
-12 15 -45 15 l-45 0 0 345 0 345 23 0 c33 0 67 11 67 21 0 6 -49 8 -112 7
l-112 -3 -48 -125 c-169 -450 -176 -466 -186 -440 -33 88 -177 474 -194 518
l-19 52 -115 0 c-63 0 -114 -4 -114 -9z"/>
<path d="M5490 6091 c0 -6 20 -13 45 -17 l45 -6 0 -344 0 -344 -45 0 c-34 0
-45 -4 -45 -15 0 -13 21 -15 150 -13 89 2 151 7 153 13 1 6 -18 12 -43 15
l-45 5 -3 338 c-2 265 0 338 10 341 7 3 30 7 51 11 20 3 37 10 37 15 0 6 -63
10 -155 10 -90 0 -155 -4 -155 -9z"/>
<path d="M5940 6090 c0 -5 23 -12 50 -16 l50 -7 -2 -341 -3 -341 -45 -5 c-84
-9 -42 -25 76 -28 91 -2 115 0 112 10 -3 7 -26 15 -54 18 l-49 5 -5 318 c-5
292 -2 358 14 310 3 -10 104 -164 225 -343 157 -234 224 -325 237 -325 18 0
19 14 18 363 0 358 0 362 20 362 32 0 66 11 66 21 0 5 -49 9 -110 9 -115 0
-146 -13 -60 -25 l50 -7 0 -251 c0 -144 -4 -247 -9 -241 -5 5 -86 125 -180
267 l-171 257 -115 0 c-67 0 -115 -4 -115 -10z"/>
<path d="M6800 6091 c0 -10 34 -21 68 -21 l22 0 0 -345 0 -345 -45 0 c-33 0
-45 -4 -45 -15 0 -13 39 -15 290 -15 l290 0 0 105 c0 83 -3 105 -14 105 -8 0
-16 -14 -20 -32 -18 -97 -84 -139 -228 -146 l-98 -5 0 173 0 173 65 -6 c79 -6
100 -22 110 -83 3 -24 12 -44 18 -44 9 0 11 38 9 145 -3 142 -15 187 -28 104
-11 -65 -30 -80 -107 -86 l-67 -6 0 162 0 161 85 0 c130 0 182 -32 208 -127
15 -59 37 -57 37 5 0 26 -3 71 -6 100 l-7 52 -268 0 c-149 0 -269 -4 -269 -9z"/>
<path d="M7916 6091 c-4 -6 13 -13 44 -17 l50 -7 0 -343 0 -344 -45 0 c-33 0
-45 -4 -45 -15 0 -13 22 -15 138 -15 274 0 370 26 456 121 63 70 81 129 81
264 0 100 -3 115 -28 167 -35 72 -97 134 -167 167 -53 25 -63 26 -266 29 -138
2 -214 0 -218 -7z m409 -36 c50 -20 93 -72 112 -133 25 -82 25 -304 -1 -387
-32 -107 -108 -155 -240 -155 l-56 0 0 163 c0 90 -3 245 -7 345 l-6 180 29 5
c41 7 134 -3 169 -18z"/>
<path d="M8710 6091 c0 -6 20 -13 45 -17 l45 -6 0 -344 0 -344 -45 0 c-33 0
-45 -4 -45 -15 0 -13 38 -15 285 -15 l285 0 0 105 c0 102 -12 137 -26 78 -24
-104 -88 -145 -231 -151 l-93 -4 0 171 0 171 45 0 c64 0 113 -22 120 -54 3
-14 7 -37 10 -51 3 -14 10 -25 15 -25 6 0 10 57 10 145 0 122 -2 145 -15 145
-9 0 -15 -9 -15 -24 0 -74 -38 -106 -126 -106 l-44 0 0 160 0 160 79 0 c44 0
92 -5 108 -11 46 -17 81 -58 94 -110 16 -60 39 -66 39 -10 0 21 -3 66 -6 100
l-7 61 -263 0 c-158 0 -264 -4 -264 -9z"/>
<path d="M11210 6090 c0 -5 23 -12 50 -16 l50 -7 0 -271 c0 -212 3 -284 15
-322 25 -85 88 -125 209 -132 155 -9 242 32 271 131 12 40 15 109 15 324 l0
273 23 0 c33 0 67 11 67 21 0 5 -49 9 -110 9 -116 0 -148 -14 -59 -26 l50 -7
-3 -291 c-3 -271 -4 -293 -23 -326 -32 -54 -75 -72 -167 -68 -59 2 -83 8 -105
24 -56 41 -58 54 -61 372 l-4 292 24 0 c33 0 68 11 68 21 0 5 -70 9 -155 9
-93 0 -155 -4 -155 -10z"/>
<path d="M12050 6091 c0 -6 20 -13 45 -17 l45 -6 0 -344 0 -344 -45 0 c-33 0
-45 -4 -45 -15 0 -13 38 -15 279 -15 l279 0 6 88 c4 48 9 102 12 120 8 55 -20
38 -34 -20 -26 -110 -97 -157 -239 -157 l-83 -1 0 345 0 345 23 0 c33 0 67 11
67 21 0 5 -70 9 -155 9 -90 0 -155 -4 -155 -9z"/>
<path d="M12690 6051 c0 -26 -3 -76 -6 -110 -6 -51 -4 -61 9 -61 10 0 17 13
22 38 9 57 46 115 85 134 20 10 58 18 88 18 l52 0 0 -345 0 -345 -50 0 c-38 0
-50 -4 -50 -15 0 -13 22 -15 160 -13 96 2 161 7 163 13 1 6 -22 11 -50 13
l-53 3 0 345 0 344 55 0 c94 0 132 -32 158 -131 23 -92 37 -74 37 50 l0 111
-310 0 -310 0 0 -49z"/>
<path d="M8228 4451 c-98 -63 -194 -231 -205 -361 -7 -82 -1 -109 33 -149 35
-42 75 -41 162 3 92 47 110 62 95 77 -9 9 -30 3 -97 -31 -100 -51 -128 -50
-146 6 -31 93 32 275 134 382 31 33 75 62 96 62 17 0 12 -55 -10 -105 -20 -47
-19 -65 4 -65 16 0 55 78 63 125 7 47 -17 85 -55 85 -16 0 -49 -13 -74 -29z"/>
<path d="M9670 4448 c-35 -58 -130 -370 -130 -427 0 -14 6 -21 20 -21 13 0 20
7 20 18 0 39 130 162 172 162 23 0 24 -39 3 -80 -14 -27 -128 -110 -151 -110
-17 0 -37 -27 -25 -34 14 -9 113 31 160 64 70 51 99 139 60 187 -26 30 -105 7
-166 -50 -13 -11 -23 -18 -23 -14 0 16 64 206 87 256 23 54 24 81 3 81 -6 0
-19 -15 -30 -32z"/>
<path d="M8509 4434 c-6 -16 -31 -92 -55 -169 -24 -77 -51 -157 -59 -178 -8
-20 -15 -51 -15 -67 0 -50 32 -38 97 36 60 67 106 100 124 88 7 -4 9 -24 5
-53 -10 -83 32 -125 80 -80 27 25 32 44 9 35 -8 -3 -22 -9 -30 -12 -12 -5 -15
5 -15 61 0 75 -12 105 -41 105 -32 0 -59 -18 -121 -78 l-57 -56 62 182 c59
171 61 182 45 198 -16 17 -18 16 -29 -12z"/>
<path d="M11373 4448 c-11 -14 -143 -418 -143 -437 0 -7 7 -14 16 -18 10 -4
42 21 98 76 46 44 91 81 100 81 13 0 16 -11 16 -61 0 -94 22 -118 75 -83 29
19 35 50 8 39 -10 -4 -24 -9 -30 -12 -10 -4 -11 9 -7 56 8 70 -10 111 -50 111
-27 0 -103 -55 -140 -102 -32 -41 -33 -28 -2 53 82 222 99 280 84 295 -12 12
-17 13 -25 2z"/>
<path d="M11117 4429 c-25 -37 -65 -134 -78 -184 -11 -44 -22 -55 -34 -35 -10
16 -68 11 -92 -8 -11 -9 -35 -39 -52 -66 -35 -56 -42 -124 -16 -146 26 -22 75
-14 116 19 l38 31 3 -52 c2 -39 7 -53 18 -53 12 0 16 19 21 85 8 107 53 264
102 357 20 39 21 44 5 59 -15 15 -17 15 -31 -7z m-119 -262 c6 -7 8 -27 3 -47
-12 -60 -131 -133 -131 -81 0 32 17 66 50 105 33 37 60 45 78 23z"/>
<path d="M11235 4413 c-8 -21 -22 -51 -30 -66 -34 -64 -1 -80 40 -20 26 39 34
106 15 118 -6 4 -17 -11 -25 -32z"/>
<path d="M11759 4409 c-31 -17 -92 -100 -81 -111 7 -7 23 2 50 26 22 20 42 36
45 36 2 0 8 -11 11 -25 5 -18 13 -25 31 -25 27 0 42 15 21 23 -7 3 -16 19 -19
36 -7 34 -35 54 -58 40z"/>
<path d="M11981 4319 c-21 -47 -24 -50 -54 -47 -24 2 -33 -1 -35 -14 -3 -14 3
-18 22 -18 14 0 26 -1 26 -2 0 -2 -14 -37 -31 -78 -42 -104 -47 -148 -19 -182
18 -24 29 -28 71 -28 36 0 54 5 69 20 35 35 21 60 -18 30 -28 -22 -72 -26 -90
-8 -20 20 -14 55 25 153 l37 94 60 3 c46 2 61 7 61 18 0 11 -12 15 -48 15 -26
0 -47 1 -47 3 0 1 7 19 15 39 19 46 19 53 -4 53 -13 0 -25 -16 -40 -51z"/>
<path d="M9922 4218 c-58 -156 -76 -226 -62 -242 16 -21 35 -6 43 33 4 18 34
58 74 100 61 64 72 71 106 71 31 0 38 3 35 18 -3 18 -37 27 -72 18 -12 -3 -43
-26 -69 -52 -26 -25 -47 -44 -47 -41 0 2 11 30 26 62 26 59 26 85 0 85 -8 0
-23 -22 -34 -52z"/>
<path d="M10533 4260 c-73 -17 -123 -76 -123 -144 0 -34 6 -45 47 -82 38 -36
44 -44 30 -50 -10 -3 -30 -3 -45 0 -49 12 -56 11 -60 -5 -4 -19 24 -29 85 -29
37 0 73 18 73 38 0 3 -23 30 -51 58 -45 46 -50 55 -45 81 12 53 109 123 122
89 3 -8 1 -24 -5 -35 -14 -25 3 -38 26 -20 23 20 32 51 20 74 -10 20 -27 36
-37 34 -3 -1 -20 -4 -37 -9z"/>
<path d="M12485 4254 c-44 -23 -66 -45 -81 -81 -24 -57 -18 -83 31 -129 25
-23 45 -45 45 -49 0 -4 -24 -5 -54 -2 -41 4 -56 2 -60 -9 -7 -18 63 -37 109
-28 55 10 56 38 1 93 -59 60 -61 89 -7 142 42 43 81 52 81 20 0 -11 -5 -23
-10 -26 -8 -5 -7 -11 1 -21 15 -18 28 -9 44 29 28 66 -27 99 -100 61z"/>
<path d="M10215 4216 c-47 -48 -75 -117 -75 -181 0 -93 103 -115 174 -37 32
37 8 42 -43 10 -34 -21 -56 -28 -71 -23 -18 6 -21 13 -18 58 l3 52 37 -3 c42
-4 90 18 112 50 24 33 20 84 -6 102 -38 27 -68 20 -113 -28z m99 -12 c9 -24
-46 -74 -83 -74 -40 0 -39 10 3 54 35 38 70 47 80 20z"/>
<path d="M12203 4228 c-40 -41 -83 -133 -83 -175 0 -77 51 -114 120 -86 41 17
70 41 70 60 0 19 -12 16 -50 -12 -57 -42 -100 -29 -100 30 0 41 13 59 37 51
33 -10 96 18 121 54 27 41 28 64 2 90 -31 31 -80 26 -117 -12z m94 -25 c13
-34 -92 -96 -111 -65 -3 5 9 25 25 45 33 40 75 50 86 20z"/>
<path d="M11735 4238 c-87 -49 -133 -115 -142 -203 -5 -49 -4 -54 21 -70 39
-26 92 -7 146 51 71 77 90 156 49 208 -22 28 -42 32 -74 14z m55 -60 c0 -68
-90 -188 -140 -188 -50 0 3 141 73 191 52 38 67 37 67 -3z"/>
<path d="M8862 4210 c-74 -53 -136 -156 -130 -215 6 -59 61 -41 161 54 26 25
37 30 37 19 0 -23 48 -78 68 -78 10 0 23 4 31 9 11 7 7 13 -17 25 -37 19 -48
53 -33 98 19 55 -13 118 -62 118 -8 0 -33 -14 -55 -30z m78 -29 c8 -17 3 -28
-36 -70 -46 -50 -121 -108 -129 -100 -17 18 113 189 143 189 6 0 16 -9 22 -19z"/>
<path d="M9130 4225 c0 -8 -11 -43 -24 -77 -28 -73 -39 -147 -25 -168 10 -16
6 -20 113 104 26 32 50 56 52 54 2 -2 -3 -28 -11 -58 -19 -69 -19 -79 0 -86
10 -4 36 15 74 55 32 34 64 61 70 61 6 0 11 -18 11 -43 0 -68 43 -110 78 -75
18 18 14 30 -7 23 -20 -6 -31 16 -31 68 0 75 -44 86 -110 30 -24 -21 -41 -30
-38 -21 18 46 19 85 3 101 -22 23 -42 11 -101 -58 -26 -30 -49 -53 -51 -52 -2
2 6 30 17 62 11 32 18 67 14 77 -6 22 -34 24 -34 3z"/>
</g>
</svg>
