<svg xmlns="http://www.w3.org/2000/svg" viewBox="0 0 100 100" width="100" height="100">
    <rect width="100" height="100" fill="none" />

    <g fill="none" stroke="#000000" stroke-width="4" stroke-linecap="round" stroke-linejoin="round">
        <polyline points="25,75 5,75 5,5 95,5 95,75 75,75" />
    </g>

    <text x="50" y="45" font-family="Georgia, 'Times New Roman', serif" font-size="35"
        font-weight="bold" text-anchor="middle" fill="#000000" stroke="none">DS</text>

    <g transform="translate(25, 55)" fill="#000000" stroke="none">
        <path
            d="M2,12 L48,12 M2,12 L2,2 M48,12 L48,2 M5,12 L5,18 M45,12 L45,18 M10,7 Q15,2 25,7 T40,7" />
        <path d="M15,0 L25,-8 L35,0 L15,0 Z M18,0 L18,4 M32,0 L32,4" />
    </g>
</svg>