<?xml version="1.0" encoding="iso-8859-1"?>
<!-- Uploaded to: SVG Repo, www.svgrepo.com, Generator: SVG Repo Mixer Tools -->
<svg fill="#000000" height="800px" width="800px" version="1.1" id="Layer_1" xmlns="http://www.w3.org/2000/svg" xmlns:xlink="http://www.w3.org/1999/xlink" 
	 viewBox="0 0 511.999 511.999" xml:space="preserve">
<g>
	<g>
		<path d="M501.548,212.327c-81.454,0-159.763,24.439-226.462,70.675c-24.265,16.821-46.39,36.077-66.106,57.413v-57.74
			c42.908-5.18,76.277-41.791,76.277-86.074c0-47.821-38.904-86.725-86.725-86.725c-47.821,0-86.725,38.904-86.725,86.725
			c0,44.282,33.368,80.894,76.277,86.074v82.301c-22.072,28.171-40.323,59.308-54.211,92.767H97.177v-31.841
			c42.908-5.18,76.277-41.791,76.277-86.073c0-47.821-38.904-86.725-86.725-86.725c-47.821,0-86.725,38.904-86.725,86.725
			c0,44.282,33.368,80.894,76.277,86.073v31.841H10.452c-5.77,0-10.449,4.678-10.449,10.449c0,5.771,4.678,10.449,10.449,10.449
			h491.096c5.77,0,10.449-4.678,10.449-10.449V222.776C511.997,217.005,507.318,212.327,501.548,212.327z M72.892,360.864
			c-4.079-4.08-10.693-4.08-14.778,0c-4.08,4.08-4.08,10.697,0,14.777l18.164,18.165v11.013
			c-31.348-5.024-55.378-32.249-55.378-64.991c0-36.297,29.531-65.828,65.828-65.828c36.297,0,65.828,29.531,65.828,65.828
			c0,32.741-24.03,59.967-55.379,64.99v-11.013l30.027-30.028c4.08-4.08,4.08-10.696,0-14.777c-4.081-4.08-10.695-4.08-14.778,0.001
			l-25.699,25.699L72.892,360.864z M169.917,232.413l18.164,18.165v11.013c-31.348-5.023-55.378-32.248-55.378-64.99
			c0-36.297,29.531-65.828,65.828-65.828c36.297,0,65.828,29.531,65.828,65.828c0,32.741-24.03,59.967-55.379,64.99v-11.013
			l30.027-30.028c4.08-4.08,4.08-10.696,0-14.777c-4.081-4.08-10.695-4.08-14.778,0.001l-25.699,25.699l-13.835-13.836
			c-4.08-4.08-10.694-4.08-14.778-0.001C165.837,221.716,165.837,228.332,169.917,232.413z M156.597,457.742
			c12.976-29.407,29.338-56.537,48.526-81.015c1.155-0.94,2.098-2.127,2.766-3.475c52.076-64.848,124.209-110.541,205.698-129.808
			c-16.192,11.196-32.325,25.32-48.162,42.275c-40.823,43.703-77.045,103.071-105.006,172.024H156.597z M283.029,457.743
			c47.466-113.118,116.529-194.77,181.981-217.867c-17.41,20.805-35.482,49.967-48.864,75.044
			c-13.705,25.682-44.668,88.75-49.778,142.823H283.029z M491.099,457.742H387.392v0c3.891-35.376,21.055-84.007,47.191-132.985
			c21.038-39.424,42.176-68.386,56.516-82.495V457.742z"/>
	</g>
</g>
<g>
	<g>
		<path d="M504.561,65.31c-5.527-1.662-11.354,1.466-13.018,6.991c-0.102,0.339-10.501,34.196-35.809,60.3
			c-4.018,4.143-3.914,10.758,0.229,14.775c2.029,1.969,4.652,2.948,7.272,2.948c2.728,0,5.454-1.063,7.503-3.175
			c28.809-29.717,40.338-67.237,40.814-68.82C513.217,72.803,510.087,66.975,504.561,65.31z"/>
	</g>
</g>
<g>
	<g>
		<path d="M444.261,156.497c-2.696-5.102-9.015-7.055-14.12-4.358c-3.693,1.951-7.527,3.636-11.396,5.009
			c-5.439,1.93-8.283,7.904-6.352,13.342c1.519,4.282,5.546,6.956,9.846,6.956c1.159,0,2.34-0.194,3.495-0.605
			c4.817-1.709,9.584-3.804,14.168-6.224C445.005,167.921,446.957,161.6,444.261,156.497z"/>
	</g>
</g>
<g>
	<g>
		<path d="M387.636,162.008c-34.053-1.046-63.291-27.937-94.247-56.408c-36.815-33.862-78.544-72.241-136.432-72.241
			c-45.185,0-86.658,23.708-119.93,68.564C12.484,135.006,1.049,167.705,0.575,169.08c-1.883,5.455,1.013,11.404,6.468,13.287
			c1.13,0.39,2.279,0.575,3.41,0.575c4.332,0,8.383-2.718,9.876-7.044c0.419-1.216,43.06-121.641,136.627-121.641
			c49.74,0,86.619,33.92,122.285,66.724c33.9,31.18,65.922,60.632,107.753,61.915c0.11,0.003,0.217,0.005,0.327,0.005
			c5.622,0,10.264-4.47,10.437-10.128C397.936,167.005,393.403,162.186,387.636,162.008z"/>
	</g>
</g>
</svg>