<!DOCTYPE svg PUBLIC "-//W3C//DTD SVG 1.1//EN" "http://www.w3.org/Graphics/SVG/1.1/DTD/svg11.dtd">
<!-- Uploaded to: SVG Repo, www.svgrepo.com, Transformed by: SVG Repo Mixer Tools -->
<svg fill="#000000" height="800px" width="800px" version="1.1" id="Layer_1" xmlns="http://www.w3.org/2000/svg" xmlns:xlink="http://www.w3.org/1999/xlink" viewBox="-25.6 -25.6 563.20 563.20" xml:space="preserve" stroke="#000000" stroke-width="5.12">
<g id="SVGRepo_bgCarrier" stroke-width="0"/>
<g id="SVGRepo_tracerCarrier" stroke-linecap="round" stroke-linejoin="round"/>
<g id="SVGRepo_iconCarrier"> <g> <g> <g> <path d="M21.21,141.778c1.827,0,3.664-0.617,5.176-1.878l8.437-7.041c3.429-2.861,3.888-7.959,1.027-11.387 c-2.861-3.429-7.959-3.888-11.387-1.027l-8.437,7.041c-3.429,2.861-3.888,7.959-1.027,11.387 C16.597,140.789,18.895,141.777,21.21,141.778z"/> <path d="M156.736,62.682l9.497,5.526c1.279,0.744,2.679,1.098,4.059,1.098c2.784,0,5.493-1.44,6.994-4.019 c2.245-3.859,0.938-8.807-2.921-11.054l-9.497-5.526c-3.86-2.245-8.807-0.938-11.054,2.921 C151.569,55.489,152.877,60.437,156.736,62.682z"/> <path d="M413.364,161.471c1.104,3.424,4.278,5.604,7.692,5.604c0.824,0,1.66-0.126,2.485-0.392 c4.249-1.37,6.582-5.927,5.212-10.175l-3.374-10.458c-1.37-4.25-5.936-6.583-10.175-5.212c-4.249,1.371-6.582,5.927-5.212,10.175 L413.364,161.471z"/> <path d="M482.259,93.249c0.399,0,0.802-0.029,1.207-0.089l10.867-1.627c4.416-0.661,7.459-4.777,6.798-9.192 c-0.661-4.417-4.789-7.454-9.191-6.798l-10.867,1.627c-4.416,0.661-7.459,4.776-6.798,9.192 C474.875,90.37,478.323,93.249,482.259,93.249z"/> <path d="M374.469,17.797c0.399,0,0.802-0.029,1.207-0.089l10.867-1.627c4.416-0.661,7.459-4.777,6.798-9.192 c-0.661-4.416-4.788-7.457-9.191-6.798l-10.867,1.627c-4.416,0.661-7.459,4.776-6.798,9.192 C367.086,14.918,370.534,17.797,374.469,17.797z"/> <path d="M471.155,337.466c0.525,0,1.058-0.052,1.594-0.158l10.775-2.156c4.379-0.876,7.218-5.135,6.342-9.513 c-0.876-4.378-5.133-7.214-9.512-6.341l-10.775,2.156c-4.379,0.875-7.218,5.135-6.342,9.513 C464.006,334.809,467.381,337.466,471.155,337.466z"/> <path d="M503.916,495.831h-5.938c2.073-4.044,3.243-8.625,3.243-13.474c0-8.486-3.584-16.149-9.317-21.558 c5.734-5.409,9.317-13.072,9.317-21.558c0-16.345-13.298-29.642-29.642-29.642h-16.717c2.073-4.044,3.243-8.625,3.243-13.474 c0-16.345-13.298-29.642-29.642-29.642h-10.779c-16.344,0-29.642,13.297-29.642,29.642c0,8.486,3.584,16.149,9.317,21.558 c-5.734,5.409-9.317,13.072-9.317,21.558c0,4.848,1.171,9.429,3.243,13.474h-5.938c-16.344,0-29.642,13.297-29.642,29.642 c0,4.848,1.171,9.429,3.243,13.474h-16.717c-4.466,0-8.084,3.62-8.084,8.084c0,4.465,3.619,8.084,8.084,8.084h161.684 c4.466,0,8.084-3.62,8.084-8.084C512,499.451,508.382,495.831,503.916,495.831z M417.684,382.652h10.779 c7.43,0,13.474,6.044,13.474,13.474c0,7.43-6.044,13.474-13.474,13.474h-10.779c-7.43,0-13.474-6.044-13.474-13.474 C404.211,388.697,410.254,382.652,417.684,382.652z M455.591,468.884h15.988c7.43,0,13.474,6.044,13.474,13.474 s-6.044,13.474-13.474,13.474h-86.232c-7.43,0-13.474-6.044-13.474-13.474s6.044-13.474,13.474-13.474h42.397 c4.466,0,8.084-3.62,8.084-8.084s-3.619-8.084-8.084-8.084h-10.06c-7.43,0-13.474-6.044-13.474-13.474 s6.044-13.474,13.474-13.474h53.895c7.43,0,13.474,6.044,13.474,13.474s-6.044,13.474-13.474,13.474h-15.988 c-4.466,0-8.084,3.62-8.084,8.084S451.125,468.884,455.591,468.884z"/> <path d="M51.2,354.935h65.393c4.465,0,8.084-3.62,8.084-8.084s-3.62-8.084-8.084-8.084H51.2 c-19.316,0-35.032-15.716-35.032-35.032c0-53.071,22.069-103.703,60.753-139.848c3.542,2.025,7.64,3.184,12.005,3.184h21.558 c13.373,0,24.253-10.879,24.253-24.253c0-5.278-1.694-10.168-4.569-14.154c24.327-10.795,50.282-16.258,77.327-16.258 c72.902,0,139.217,41.407,171.422,106.25c-7.413,4.154-12.432,12.089-12.432,21.173c0,13.373,10.88,24.253,24.253,24.253h3.972 c2.73,12.971,4.112,26.28,4.112,39.651c0,19.316-15.715,35.032-35.032,35.032h-16.326c-4.466,0-8.084,3.62-8.084,8.084 c0,4.465,3.619,8.084,8.084,8.084h16.326c28.231,0,51.2-22.969,51.2-51.2c0-13.985-1.395-27.912-4.155-41.512 c8.76-3.659,14.934-12.318,14.934-22.391c0-13.373-10.88-24.253-24.253-24.253h-6.131 C361.253,142.907,288.084,96.24,207.495,96.24c-32.667,0-65.159,7.777-94.076,22.504c-0.963-0.116-1.941-0.177-2.934-0.177 H88.926c-13.373,0-24.253,10.879-24.253,24.253c0,3.115,0.59,6.093,1.664,8.832C24.105,190.874,0,245.972,0,303.735 C0,331.966,22.969,354.935,51.2,354.935z M390.737,231.747h10.779c4.458,0,8.084,3.626,8.084,8.084 c0,4.458-3.626,8.084-8.084,8.084h-10.779c-4.458,0-8.084-3.626-8.084-8.084C382.653,235.374,386.279,231.747,390.737,231.747z M88.926,134.736h21.558c4.458,0,8.084,3.626,8.084,8.084c0,4.458-3.626,8.084-8.084,8.084H88.926 c-4.458,0-8.084-3.626-8.084-8.084C80.842,138.364,84.468,134.736,88.926,134.736z"/> <path d="M51.925,391.628l-8.437,7.041c-3.429,2.861-3.888,7.958-1.027,11.386c1.599,1.917,3.897,2.905,6.211,2.905 c1.826,0,3.664-0.615,5.175-1.878l8.437-7.041c3.428-2.861,3.888-7.958,1.027-11.386 C60.452,389.226,55.353,388.767,51.925,391.628z"/> <path d="M97.011,459.722v1.078c0,4.465,3.62,8.084,8.084,8.084c4.465,0,8.084-3.62,8.084-8.084v-1.078 c0-4.465-3.62-8.084-8.084-8.084C100.63,451.637,97.011,455.257,97.011,459.722z"/> <path d="M285.642,353.01v-1.078c0-4.465-3.618-8.084-8.084-8.084c-4.466,0-8.084,3.62-8.084,8.084v1.078 c0,4.465,3.618,8.084,8.084,8.084C282.024,361.094,285.642,357.475,285.642,353.01z"/> <path d="M313.128,495.831h-70.602v-16.168h56.589c28.231,0,51.2-22.969,51.2-51.2v-10.779 c0-63.893-51.982-115.874-115.874-115.874c-6.414,0-12.714,0.523-18.863,1.533v-15.006c0-7.43,6.044-13.474,13.474-13.474h10.779 c4.465,0,8.084-3.62,8.084-8.084c0-4.465-3.62-8.084-8.084-8.084h-10.779c-4.848,0-9.429,1.171-13.474,3.242v-16.716 c0-4.465-3.62-8.084-8.084-8.084c-4.465,0-8.084,3.62-8.084,8.084v38.274c-4.044-2.072-8.625-3.242-13.474-3.242h-10.779 c-4.465,0-8.084,3.62-8.084,8.084c0,4.465,3.62,8.084,8.084,8.084h10.779c6.539,0,12.005,4.682,13.22,10.87 c-42.235,13.489-74.327,50.581-79.78,96.633c-0.525,4.434,2.644,8.454,7.077,8.979c4.43,0.522,8.455-2.643,8.979-7.077 c5.931-50.08,48.495-87.846,99.009-87.846c54.978,0,99.705,44.727,99.705,99.705v10.779c0,19.316-15.715,35.032-35.032,35.032 h-56.589v-13.474c0-7.43,6.044-13.474,13.474-13.474h10.779c4.466,0,8.084-3.62,8.084-8.084c0-4.465-3.618-8.084-8.084-8.084H256 c-6.231,0-12.02,1.933-16.798,5.231c-4.943-9.504-14.886-16.01-26.318-16.01h-10.779c-4.465,0-8.084,3.62-8.084,8.084 s3.62,8.084,8.084,8.084h10.779c7.43,0,13.474,6.044,13.474,13.474v24.253h-40.66c-7.999-24.98-31.444-43.116-59.045-43.116 h-10.779c-34.176,0-61.979,27.803-61.979,61.979c0,4.848,1.171,9.429,3.242,13.474H8.084c-4.465,0-8.084,3.62-8.084,8.084 C0,508.38,3.62,512,8.084,512h97.729c4.465,0,8.084-3.62,8.084-8.084c0-4.465-3.62-8.084-8.084-8.084H83.537 c-7.43,0-13.474-6.044-13.474-13.474c0-25.26,20.55-45.811,45.811-45.811h10.779c25.26,0,45.811,20.55,45.811,45.811 c0,7.43-6.044,13.474-13.474,13.474h-25.151c-4.465,0-8.084,3.62-8.084,8.084c0,4.465,3.62,8.084,8.084,8.084h179.289 c4.466,0,8.084-3.62,8.084-8.084C321.213,499.451,317.594,495.831,313.128,495.831z M199.411,495.831h-14.021 c2.072-4.044,3.242-8.625,3.242-13.474c0-0.903-0.019-1.801-0.058-2.695h10.837V495.831z M226.358,495.831h-10.779v-16.168 h10.779V495.831z"/> <path d="M258.695,384.269v1.078c0,4.465,3.618,8.084,8.084,8.084c4.466,0,8.084-3.62,8.084-8.084v-1.078 c0-4.465-3.618-8.084-8.084-8.084C262.313,376.185,258.695,379.804,258.695,384.269z"/> <path d="M110.484,258.694H67.368c-13.373,0-24.253,10.879-24.253,24.253c0,13.373,10.879,24.253,24.253,24.253h43.116 c13.373,0,24.253-10.879,24.253-24.253C134.737,269.575,123.858,258.694,110.484,258.694z M110.484,291.031H67.368 c-4.458,0-8.084-3.626-8.084-8.084c0-4.458,3.626-8.084,8.084-8.084h43.116c4.458,0,8.084,3.626,8.084,8.084 C118.568,287.405,114.942,291.031,110.484,291.031z"/> <path d="M272.168,172.463c-13.372,0-24.253,10.879-24.253,24.253c0,13.373,10.88,24.253,24.253,24.253h21.558 c13.372,0,24.253-10.879,24.253-24.253c0-13.373-10.88-24.253-24.253-24.253H272.168z M301.811,196.715 c0,4.458-3.626,8.084-8.084,8.084h-21.558c-4.458,0-8.084-3.626-8.084-8.084c0-4.458,3.626-8.084,8.084-8.084h21.558 C298.184,188.631,301.811,192.258,301.811,196.715z"/> <path d="M307.2,380.496v-1.078c0-4.465-3.618-8.084-8.084-8.084c-4.466,0-8.084,3.62-8.084,8.084v1.078 c0,4.465,3.619,8.084,8.084,8.084C303.582,388.581,307.2,384.961,307.2,380.496z"/> </g> </g> </g> </g>
</svg>