<svg xmlns="http://www.w3.org/2000/svg" width="231" height="231" viewBox="0 0 231 231"><g transform="translate(-567.284 -523.905)"><rect width="231" height="231" transform="translate(567.284 523.905)" fill="#c47d1e"/><path d="M842.776,770.622H829.925L827,776.383h-6.958l15.821-31.065h1.817l14.669,31.065h-6.87Zm-2.924-6.2-3.235-6.914-3.5,6.914Z" transform="translate(-154.987 -135.315)" fill="#fff"/><path d="M689.216,751.848c-6.027-3.9-15.112-.266-15.112,8.065,0,8.731,9.617,12.232,15.466,7.8l3.989,4.564a16.074,16.074,0,1,1-.355-25.038Z" transform="translate(-61.261 -134.401)" fill="#fff"/><path d="M956.92,762.288a14.866,14.866,0,0,1-4.7-1.949,8.528,8.528,0,0,1-3.989-7,8.314,8.314,0,0,1,2.26-6.337,10.778,10.778,0,0,1,7.224-3.057,15.409,15.409,0,0,1,9.306,3.1l1.019.665-3.235,5.273-1.108-.709c-1.994-1.285-3.279-2.127-5.983-2.127a4.73,4.73,0,0,0-2.748,1.153,2.182,2.182,0,0,0-.531,1.772c.044,1.6,1.152,2.482,3.988,3.192.354.088.62.177.886.266a16.427,16.427,0,0,1,6.869,4.121,8.976,8.976,0,0,1,2.437,6.071A9.662,9.662,0,0,1,959,776.071a18.407,18.407,0,0,1-5.451-.753,17.192,17.192,0,0,1-7.4-4.7l4.521-4.255a10.735,10.735,0,0,0,8.331,3.5,3.413,3.413,0,0,0,3.413-3.147c0-1.684-1.906-3.235-5.141-4.342l-.133-.045Z" transform="translate(-232.315 -134.472)" fill="#fff"/><rect width="6.129" height="31.065" transform="translate(702.089 609.913)" fill="#fff"/><rect width="6.129" height="24.702" transform="translate(695.961 652.918)" fill="#fff"/><path d="M958.995,856.257H938.3v0h-.067v31.065h.067v0h20.566v-6.2h-14.5V862.461h14.637Z" transform="translate(-227.457 -203.341)" fill="#fff"/><rect width="13.011" height="6.205" transform="translate(716.3 665.326)" fill="#fff"/><path d="M843.089,865.741a14.831,14.831,0,0,0-3.324-4.963,15.261,15.261,0,0,0-10.947-4.521h-8.776v6.2h8.776a9.33,9.33,0,0,1,0,18.661h-2.571V868.667h-6.2v18.615h2.526v.044h6.25a15.56,15.56,0,0,0,10.947-4.565,13.823,13.823,0,0,0,3.324-4.919,15.371,15.371,0,0,0,0-12.1" transform="translate(-154.987 -203.341)" fill="#fff"/><path d="M1033.338,875.852v-19.59h-6.205V875.9h.044a5.854,5.854,0,0,1-1.729,4.078,5.831,5.831,0,0,1-8.2,0,5.628,5.628,0,0,1-1.729-4.122V862.465h-6.2V875.9a12.033,12.033,0,0,0,24.067-.044Z" transform="translate(-271.047 -203.344)" fill="#fff"/><path d="M764.607,745.2v11.877H753.128v-5.731h-6.2v24.876h6.2v-12.94h11.478v12.94h6.2V745.2Z" transform="translate(-110.153 -135.244)" fill="#fff"/><path d="M1024.123,784.885V783.41h11.769V777.2h-11.769v-.01h-6.129V795.84h.067v0h20.565v-6.2h-14.5Z" transform="translate(-276.368 -154.861)" fill="#fff"/><path d="M1018.061,745.083v0h-.067v6.207h6.129v0h14.636v-6.2Z" transform="translate(-276.368 -135.171)" fill="#fff"/><path d="M693.626,887.395a8.325,8.325,0,0,1-11.272,7.811,3.016,3.016,0,0,0-3.182.721,2.97,2.97,0,0,0-.591,3.213c.456,1.088,1.522,3.637.954,5.376-1.08,3.313-6.341,9.731-8.872,12.818l-.4.494-.416-.5c-2.722-3.32-7.789-9.5-8.866-12.811-.569-1.749.5-4.3.957-5.388a2.964,2.964,0,0,0-2.735-4.112,2.919,2.919,0,0,0-1.038.188,8.345,8.345,0,1,1-2.926-16.16,8.26,8.26,0,0,1,5.03,1.7,3.044,3.044,0,0,0,4-.386,2.983,2.983,0,0,0-.062-4.021,8.337,8.337,0,0,1,6.048-14.089v-5.931A14.289,14.289,0,0,0,656.2,873.145c-.322-.02-.646-.032-.968-.032a14.281,14.281,0,0,0-.225,28.56,10.114,10.114,0,0,0,.328,4.68c1.421,4.361,6.524,10.592,9.916,14.734l1.041,1.271a5.1,5.1,0,0,0,7.921,0l1.051-1.288c3.38-4.125,8.486-10.359,9.908-14.721a10.073,10.073,0,0,0,.326-4.68,14.3,14.3,0,0,0,14.056-14.279Z" transform="translate(-45.174 -203.379)" fill="#fff"/><rect width="17.612" height="6.205" transform="translate(636.772 665.326)" fill="#fff"/><path d="M750.651,659.448H737.8l-2.925,5.761h-6.958l15.821-31.065h1.817l14.669,31.065h-6.87Zm-2.924-6.2-3.235-6.914-3.5,6.914Z" transform="translate(-98.498 -67.145)" fill="#fff"/><path d="M673.32,658.773V633.911h-6.129v31.067h20.633v-6.2Z" transform="translate(-61.261 -67.002)" fill="#fff"/><path d="M863.865,971.762H862.31V959.689h2.552a3,3,0,0,1,2.554.863,3.689,3.689,0,0,1,.711,2.536c0,1.945-.457,2.841-1.657,3.314l1.892,5.361h-1.707l-1.69-5.208h-1.1Zm.9-6.426c.761,0,1.116-.135,1.4-.541a2.72,2.72,0,0,0,.4-1.606,2.872,2.872,0,0,0-.455-1.775,1.481,1.481,0,0,0-1.3-.457h-.981v4.38Z" transform="translate(-180.905 -266.764)" fill="#fff"/><path d="M889.513,971.48c0-1.454-.272-1.945-1.049-1.945-.727,0-1.016.44-1.016,1.522h-1.385a3.1,3.1,0,0,1,.372-1.826,2.3,2.3,0,0,1,2.047-.93c1.792,0,2.519.964,2.519,3.28v5.462h-1.166l-.085-.457a1.868,1.868,0,0,1-1.658.626c-1.657,0-2.3-.727-2.3-2.57,0-1.928.692-2.655,2.5-2.655h1.218Zm-.829,1.624c-1.014,0-1.4.423-1.4,1.539,0,1.014.287,1.352,1.149,1.352.829,0,1.083-.372,1.083-1.522V973.1Z" transform="translate(-195.305 -272.046)" fill="#fff"/><path d="M906.959,968.694h1.488l1.353,6.714,1.251-6.714h1.505l-2.182,9.858c-.491,2.131-1.031,2.6-2.993,2.621v-1.251c.981.017,1.166-.186,1.471-1.505l.2-1.065Z" transform="translate(-208.283 -272.286)" fill="#fff"/><path d="M929.127,971.633c0-2.367.761-3.331,2.621-3.331s2.621.964,2.621,3.331v2.232c0,2.367-.761,3.348-2.621,3.348s-2.621-.981-2.621-3.348Zm3.754-.135c0-1.437-.3-1.961-1.133-1.961s-1.133.524-1.133,1.961v2.486c0,1.471.3,2,1.133,2s1.133-.524,1.133-2Z" transform="translate(-221.876 -272.046)" fill="#fff"/><path d="M952,968.454h1.116l.118.71a1.844,1.844,0,0,1,1.725-.862,1.97,1.97,0,0,1,1.962,1.268,5.637,5.637,0,0,1,.22,1.927v5.546h-1.488v-5.377c0-1.555-.27-2.1-1.031-2.1-.829,0-1.133.643-1.133,2.384v5.089H952Z" transform="translate(-235.9 -272.046)" fill="#fff"/><path d="M974.822,968.454h1.116l.118.71a1.844,1.844,0,0,1,1.725-.862,1.971,1.971,0,0,1,1.962,1.268,5.648,5.648,0,0,1,.22,1.927v5.546h-1.488v-5.377c0-1.555-.27-2.1-1.031-2.1-.829,0-1.133.643-1.133,2.384v5.089h-1.488Z" transform="translate(-249.896 -272.046)" fill="#fff"/><path d="M1000.276,971.48c0-1.454-.27-1.945-1.048-1.945-.726,0-1.014.44-1.014,1.522h-1.386a3.09,3.09,0,0,1,.372-1.826,2.3,2.3,0,0,1,2.045-.93c1.792,0,2.519.964,2.519,3.28v5.462H1000.6l-.085-.457a1.867,1.867,0,0,1-1.657.626c-1.655,0-2.3-.727-2.3-2.57,0-1.928.694-2.655,2.5-2.655h1.216Zm-.829,1.624c-1.014,0-1.4.423-1.4,1.539,0,1.014.287,1.352,1.15,1.352.829,0,1.081-.372,1.081-1.522V973.1Z" transform="translate(-263.223 -272.046)" fill="#fff"/><path d="M1019.515,968.454h1.116l.118.71a1.844,1.844,0,0,1,1.725-.862,1.972,1.972,0,0,1,1.962,1.268,5.634,5.634,0,0,1,.22,1.927v5.546h-1.488v-5.377c0-1.555-.272-2.1-1.033-2.1-.827,0-1.131.643-1.131,2.384v5.089h-1.488Z" transform="translate(-277.301 -272.046)" fill="#fff"/><path d="M1040.94,965.731v-1.218h.761l.085-2.637h1.4v2.637h1.183v1.218h-1.183v4.786c-.017,1.048.2,1.352.9,1.336h.3V973.1h-.439c-1.877,0-2.267-.474-2.249-2.722v-4.65Z" transform="translate(-290.438 -268.105)" fill="#fff"/><path d="M1059.484,974c0,1.437.3,1.979,1.131,1.979.779,0,1.118-.49,1.118-1.623h1.386a3.626,3.626,0,0,1-.355,1.843,2.4,2.4,0,0,1-2.182,1.015c-1.827,0-2.586-1.048-2.586-3.517v-1.86c0-2.52.744-3.534,2.586-3.534,1.86,0,2.6,1.014,2.6,3.534v1.217h-3.7Zm2.265-2.08v-.49c0-1.4-.3-1.911-1.149-1.911-.829,0-1.116.507-1.116,1.911v.49Z" transform="translate(-300.897 -272.045)" fill="#fff"/><path d="M951.083,1013.078c0-1.454-.272-1.944-1.049-1.944-.727,0-1.016.44-1.016,1.522h-1.386a3.1,3.1,0,0,1,.372-1.826,2.3,2.3,0,0,1,2.047-.93c1.793,0,2.519.963,2.519,3.28v5.462H951.4l-.085-.457a1.868,1.868,0,0,1-1.658.626c-1.657,0-2.3-.727-2.3-2.57,0-1.928.692-2.655,2.5-2.655h1.218Zm-.829,1.623c-1.014,0-1.4.423-1.4,1.539,0,1.014.287,1.352,1.148,1.352.829,0,1.084-.372,1.084-1.522v-1.37Z" transform="translate(-233.058 -297.553)" fill="#fff"/><path d="M970.317,1001.287h1.488v3.957a1.762,1.762,0,0,1,1.488-.625c1.523,0,2.2,1,2.2,3.212v2.181c0,2.452-.694,3.517-2.284,3.517a1.887,1.887,0,0,1-1.64-.777l-.1.608h-1.151Zm3.687,6.459c0-1.268-.339-1.86-1.049-1.86-.778,0-1.15.778-1.15,2.452v1.454c0,1.657.372,2.452,1.15,2.452.709,0,1.049-.659,1.049-2.063Z" transform="translate(-247.133 -292.272)" fill="#fff"/><path d="M993.058,1001.287h1.488v3.957a1.763,1.763,0,0,1,1.488-.625c1.523,0,2.2,1,2.2,3.212v2.181c0,2.452-.694,3.517-2.284,3.517a1.888,1.888,0,0,1-1.64-.777l-.1.608h-1.151Zm3.687,6.459c0-1.268-.339-1.86-1.049-1.86-.778,0-1.15.778-1.15,2.452v1.454c0,1.657.372,2.452,1.15,2.452.709,0,1.049-.659,1.049-2.063Z" transform="translate(-261.078 -292.272)" fill="#fff"/><path d="M1018.422,1013.078c0-1.454-.27-1.944-1.049-1.944-.727,0-1.014.44-1.014,1.522h-1.385a3.09,3.09,0,0,1,.372-1.826,2.3,2.3,0,0,1,2.045-.93c1.793,0,2.519.963,2.519,3.28v5.462h-1.166l-.085-.457a1.868,1.868,0,0,1-1.657.626c-1.656,0-2.3-.727-2.3-2.57,0-1.928.694-2.655,2.5-2.655h1.217Zm-.829,1.623c-1.014,0-1.4.423-1.4,1.539,0,1.014.287,1.352,1.15,1.352.829,0,1.082-.372,1.082-1.522v-1.37Z" transform="translate(-274.35 -297.553)" fill="#fff"/><path d="M1035.868,1010.292h1.488l1.353,6.714,1.251-6.714h1.505l-2.182,9.858c-.49,2.131-1.031,2.6-2.993,2.621v-1.252c.981.017,1.168-.186,1.473-1.505l.2-1.065Z" transform="translate(-287.328 -297.793)" fill="#fff"/><path d="M1059.484,1015.6c0,1.438.3,1.979,1.133,1.979.779,0,1.116-.49,1.116-1.623h1.386a3.587,3.587,0,0,1-.355,1.843,2.4,2.4,0,0,1-2.182,1.015c-1.825,0-2.586-1.048-2.586-3.517v-1.86c0-2.52.744-3.534,2.586-3.534,1.862,0,2.606,1.014,2.606,3.534v1.217h-3.7Zm2.266-2.08v-.49c0-1.4-.3-1.911-1.151-1.911-.829,0-1.116.507-1.116,1.911v.49Z" transform="translate(-300.897 -297.553)" fill="#fff"/></g></svg>