<svg width="500" height="161" viewBox="0 0 500 161" fill="none" xmlns="http://www.w3.org/2000/svg">
<g id="logo couleur" clip-path="url(#clip0_1_1981)">
<path id="livradois-forez" d="M241.395 97.5248C229.06 97.5248 220.714 106.307 220.714 117.621C220.714 128.935 229.128 137.717 241.327 137.717C253.526 137.717 262.008 128.935 262.008 117.621C262.008 111.889 260.048 107.164 256.208 103.325C252.355 99.4854 247.427 97.5248 241.409 97.5248H241.395ZM241.327 127.56C236.031 127.56 232.11 123.421 232.11 117.621C232.11 111.821 236.031 107.682 241.327 107.682C246.623 107.682 250.613 111.821 250.613 117.621C250.613 123.421 246.623 127.56 241.327 127.56ZM275.841 104.264H275.256V98.4642H264.663V136.777H275.909V119.363C275.909 112.76 279.463 108.771 284.977 108.771H289.402V98.1783H285.699C280.988 98.1783 277.353 101.01 275.828 104.278L275.841 104.264ZM288.286 56.8429C288.286 50.2396 291.839 46.2504 297.353 46.2504H301.778V35.6579H298.075C293.364 35.6579 289.729 38.4898 288.204 41.7574H287.618V35.9574H277.026V74.2702H288.272V56.8566L288.286 56.8429ZM261.219 74.2566L274.711 35.9438H262.88L254.901 60.9002H254.316L246.338 35.9438H234.656L248.23 74.2566H261.219ZM221.095 74.2566H232.341V35.9438H221.095V74.2566ZM218.767 64.0317H198.889V23.4724H187.425V74.2702H218.767V64.0453V64.0317ZM187.425 136.777H198.889V117.253H217.542V107.464H198.889V95.7821H219.57V85.9928H187.425V136.791V136.777ZM226.732 31.4372C229.972 31.4372 232.586 28.8095 232.586 25.5827C232.586 22.356 229.959 19.7282 226.732 19.7282C223.505 19.7282 220.877 22.356 220.877 25.5827C220.877 28.8095 223.505 31.4372 226.732 31.4372ZM454.594 46.6997C454.594 44.6711 456.772 43.2823 460.176 43.2823C463.58 43.2823 465.84 44.8072 466.194 47.2035H475.915C475.411 39.3612 469.244 35.018 460.162 35.018C455.302 35.018 451.449 36.1753 448.63 38.5715C445.798 40.8997 444.423 43.7997 444.423 47.2035C444.423 63.7458 466.044 56.135 466.044 63.0242C466.044 65.2707 463.934 66.5777 460.162 66.5777C456.391 66.5777 454.212 65.1209 453.927 62.5204H443.702C443.988 70.4308 449.366 75.2233 460.094 75.2233C470.823 75.2233 476.936 70.0768 476.936 62.4524C476.936 45.4744 454.594 53.0171 454.594 46.7133V46.6997ZM435.764 19.7282C432.524 19.7282 429.91 22.356 429.91 25.5827C429.91 28.8095 432.537 31.4372 435.764 31.4372C438.991 31.4372 441.619 28.8095 441.619 25.5827C441.619 22.356 438.991 19.7282 435.764 19.7282ZM479.251 50.3622V59.8655H500V50.3622H479.251ZM430.141 74.2702H441.387V35.9574H430.141V74.2702ZM407.213 35.018C394.878 35.018 386.532 43.7997 386.532 55.1138C386.532 66.428 394.946 75.2097 407.145 75.2097C419.344 75.2097 427.826 66.428 427.826 55.1138C427.826 49.3819 425.866 44.6711 422.026 40.818C418.187 36.9785 413.245 35.018 407.227 35.018H407.213ZM407.145 65.0528C401.849 65.0528 397.928 60.9139 397.928 55.1138C397.928 49.3138 401.849 45.1748 407.145 45.1748C412.441 45.1748 416.431 49.3138 416.431 55.1138C416.431 60.9139 412.441 65.0528 407.145 65.0528ZM331.459 107.75H348.001V108.335L331.459 126.838V136.777H362.583V127.206H346.041V126.62L362.583 107.75V98.4642H331.459V107.75ZM309.906 97.5248C304.106 97.5248 299.382 99.4173 295.679 103.189C292.057 106.96 290.233 111.821 290.233 117.852C290.015 129.166 298.864 137.948 309.675 137.73C319.9 137.73 327.02 132.652 328.763 124.523H318.606C317.449 127.138 314.399 129.098 310.111 129.098C304.882 129.098 301.261 125.694 300.893 120.752H329.117V117.485C329.117 106.824 322.514 97.5248 309.893 97.5248H309.906ZM301.125 113.277C301.628 109.288 305.264 106.089 309.906 106.089C314.835 106.089 318.32 109.138 318.688 113.277H301.125ZM341.834 74.2839V35.971H330.588V40.3279H330.002C328.259 37.6457 324.488 35.0316 319.192 35.0316C313.896 35.0316 309.825 36.9241 306.571 40.6955C303.385 44.3988 301.778 49.3274 301.778 55.3589C301.778 61.3904 303.371 66.1693 306.639 69.8045C309.906 73.4261 314.181 75.2505 319.478 75.2505C325.795 75.2505 328.913 71.7651 330.07 69.9543H330.656V74.3111H341.834V74.2839ZM322.024 65.0665C316.727 65.0665 313.174 61.0092 313.174 55.1274C313.174 49.2457 316.727 45.1884 321.956 45.1884C327.184 45.1884 330.805 49.1096 330.805 55.1274C330.805 61.1453 327.32 65.0665 322.024 65.0665ZM372.958 40.3279H372.372C370.63 37.6457 366.858 35.0316 361.562 35.0316C356.266 35.0316 352.195 36.9241 348.941 40.6955C345.755 44.3988 344.148 49.3274 344.148 55.3589C344.148 61.3904 345.741 66.1693 349.009 69.8045C352.276 73.4261 356.552 75.2505 361.848 75.2505C368.165 75.2505 371.283 71.7651 372.44 69.9543H373.026V74.3111H384.204V23.4724H372.958V40.3006V40.3279ZM364.394 65.0665C359.098 65.0665 355.544 61.0092 355.544 55.1274C355.544 49.2457 359.098 45.1884 364.326 45.1884C369.554 45.1884 373.176 49.1096 373.176 55.1274C373.176 61.1453 369.69 65.0665 364.394 65.0665Z" fill="black"/>
<path id="picto" d="M81.4998 60.1923C77.7284 59.9063 73.1129 61.05 69.1646 64.2496C64.0725 68.3749 61.2678 74.2158 61.4857 80.3698C62.1256 88.1849 64.3312 93.5764 68.2387 96.8713C71.0707 99.2539 74.7604 100.534 79.2261 100.452C84.182 100.357 94.2844 94.5703 101.391 81.2956C103.243 76.8844 103.298 72.6228 101.065 69.2327C97.2525 63.4327 91.9153 60.9956 81.4862 60.2195L81.4998 60.1923ZM97.0346 79.4848C97.0346 79.4848 97.0074 79.5665 96.9802 79.6074C95.0332 85.0126 88.9473 90.4722 84.6177 93.4947C81.704 95.5234 78.0144 96.1769 74.6378 95.0877C73.358 94.6793 72.2416 94.0666 71.2749 93.2497C68.3885 90.8126 66.7275 86.483 66.1965 80.0839C65.965 73.6303 70.2674 69.4233 72.1326 67.912C74.5834 65.9242 77.3745 64.7533 79.689 64.7533C86.0745 64.7533 93.6989 66.8228 97.021 71.6289C98.4642 73.712 98.328 76.4623 97.021 79.4985L97.0346 79.4848ZM138.193 41.6213C129.507 30.8518 102.753 22.5738 81.7313 20.2184C64.2223 17.8085 56.6523 22.9823 44.072 33.248C43.7044 33.5476 43.3504 33.8607 42.9964 34.1875C32.0499 44.5622 14.5 61.6082 21.539 80.4243C24.1667 87.5313 25.3376 94.1891 26.4677 100.629C28.156 110.241 29.6128 118.574 35.4536 125.082C35.7396 125.395 36.0119 125.722 36.2842 126.048C44.2217 135.674 61.2814 140.644 75.7406 140.644C77.8101 140.644 79.8252 140.548 81.7449 140.344C90.0909 139.146 94.6792 134.789 101.024 128.771C103.665 126.266 106.647 123.434 110.459 120.303C110.827 120.003 111.181 119.69 111.535 119.363C113.727 117.294 116.245 115.129 118.9 112.842C129.983 103.311 142.536 92.5281 141.583 80.5604C141.188 75.7543 141.964 71.0571 142.727 66.5097C144.156 57.8505 145.518 49.6678 138.874 42.411C138.642 42.1523 138.411 41.8936 138.193 41.6213ZM139.623 65.9923C138.833 70.7303 138.03 75.6318 138.452 80.8055C139.269 91.1802 127.355 101.419 116.845 110.459C114.162 112.76 111.63 114.938 109.465 116.981C109.111 117.321 108.744 117.648 108.362 117.961C104.55 121.079 101.528 123.952 98.859 126.498C92.705 132.339 88.6477 136.192 81.3501 137.24C67.1768 138.738 47.0537 134.149 38.6532 124.006C38.3945 123.693 38.1222 123.38 37.8499 123.067C32.54 117.117 31.1649 109.207 29.5719 100.098C28.4691 93.8215 27.2301 86.7144 24.4935 79.3351C18.1625 62.4388 34.1602 46.9039 45.0795 36.5565C45.4199 36.2297 45.7875 35.9166 46.1551 35.6034C56.4617 27.2029 62.6429 22.7644 73.7392 22.7644C76.0402 22.7644 78.5453 22.955 81.3501 23.3362C102.059 25.6508 127.846 33.8199 135.838 43.6908C136.042 43.9359 136.246 44.1809 136.464 44.4124C142.169 50.6753 140.998 57.7824 139.636 65.9787L139.623 65.9923ZM156.914 30.0621C156.601 29.7081 156.287 29.3541 155.988 29.0001C142.863 12.9071 104.782 3.32209 82.1533 0.789682C58.3133 -2.47794 48.3199 4.61552 31.301 18.5165C31.2057 18.5846 31.124 18.6663 31.0424 18.748C16.624 32.4175 -7.51554 55.2908 2.2737 81.4182C5.55494 90.268 7.02536 98.6685 8.44133 106.783C10.5653 118.941 12.5803 130.432 20.6268 139.459C20.9672 139.84 21.3076 140.235 21.6343 140.63C32.3494 153.524 55.0457 160.181 74.2702 160.181C76.9932 160.181 79.6482 160.045 82.1806 159.773C93.7125 158.126 100.152 151.999 108.322 144.252C111.834 140.916 115.81 137.145 120.82 133.087C120.915 133.006 121.024 132.924 121.12 132.829C124.02 130.038 127.464 127.083 131.113 123.952C145.763 111.358 162.387 97.0755 161.066 80.4107C160.59 74.597 161.556 68.7425 162.496 63.0923C164.348 51.9279 166.254 40.3959 156.941 30.0485L156.914 30.0621ZM152.734 62.6021C151.767 68.4702 150.76 74.5289 151.291 80.9689C151.767 87.014 148.622 93.0591 143.802 98.9408C138.601 105.095 131.562 111.153 124.959 116.831C121.664 119.663 118.533 122.359 115.714 124.986C115.034 125.613 114.339 126.225 113.631 126.811C108.921 130.691 105.176 134.258 101.827 137.431C98.1511 140.916 95.183 143.721 92.174 145.858C88.9609 147.996 85.5843 149.439 81.2684 150.052C63.8547 151.903 39.1433 146.253 28.9048 133.782C28.6325 133.455 28.3738 133.142 28.0879 132.829C21.5663 125.572 19.8644 115.851 17.8902 104.632C16.5287 96.8849 14.9902 88.1032 11.6136 78.9675C4.04366 58.7355 22.8597 40.0147 36.1752 27.3527C37.0602 26.5086 37.9724 25.7053 38.9255 24.9428C51.111 15.0311 58.6401 9.81648 71.9693 9.81648C74.774 9.81648 77.8374 10.0479 81.2684 10.5245C106.483 13.3428 137.812 23.2001 147.914 35.1814C148.323 35.6579 148.731 36.148 149.14 36.611C155.797 44.1129 154.368 52.704 152.734 62.6021ZM126.361 49.2049C118.342 39.5518 95.5233 33.7926 81.9491 32.2814C67.7486 30.3208 61.6627 34.4598 51.5058 42.7514C51.1791 43.01 50.8795 43.2823 50.58 43.5683C41.8255 51.8598 27.8428 65.4749 33.6837 81.0778C35.6442 86.3604 36.5156 91.3844 37.3734 96.245C38.6532 103.597 39.8785 110.541 44.603 115.823C44.848 116.096 45.0931 116.382 45.3246 116.668C51.8053 124.51 65.5566 128.554 77.1975 128.554C78.8449 128.554 80.4378 128.472 81.9763 128.308C88.9881 127.301 92.8956 123.598 97.8243 118.914C99.8257 117.022 102.072 114.884 105.027 112.447C105.34 112.188 105.639 111.93 105.925 111.657C107.573 110.119 109.465 108.485 111.467 106.756C120.316 99.145 130.351 90.5267 129.547 80.3698C129.262 76.9252 129.847 73.4397 130.405 70.0632C131.522 63.3101 132.679 56.3392 127.042 50.0354C126.811 49.7767 126.579 49.5044 126.361 49.2321V49.2049ZM124.197 69.0012C123.611 72.582 122.93 76.6257 123.284 80.8463C123.829 87.8173 114.707 95.6595 107.382 101.977C105.299 103.761 103.338 105.449 101.732 106.974C101.446 107.246 101.146 107.505 100.833 107.763C97.8924 110.187 95.5642 112.392 93.4947 114.353C88.8928 118.723 86.1153 121.365 81.2003 122.073C70.7984 123.162 56.0396 119.69 50.049 112.529C49.8448 112.284 49.6405 112.038 49.4227 111.807C45.7466 107.654 44.78 102.127 43.5682 95.183C42.7105 90.2816 41.7438 84.7402 39.579 78.913C35.1813 67.1632 46.8222 55.8218 54.719 48.3199C55.0185 48.034 55.3453 47.7481 55.672 47.4894C63.3237 41.2537 67.6805 38.1222 75.5909 38.1222C77.2655 38.1222 79.1172 38.2584 81.1867 38.5443C96.5309 40.2598 116.422 46.5091 121.814 53.589C121.882 53.6843 121.964 53.7796 122.046 53.8613C125.858 57.8369 125.381 62.0031 124.21 69.0285L124.197 69.0012ZM112.964 58.6129C107.396 51.7918 91.3571 47.7345 81.8402 46.6725C71.874 45.311 67.4082 48.3608 60.4237 54.0655C60.2331 54.2152 60.0561 54.3786 59.8927 54.542C54.0246 60.1106 45.5424 68.4158 47.5847 79.5393C47.7481 80.4515 48.3063 84.0459 48.4016 84.9717C49.695 97.2117 54.8143 104.754 59.1983 108.226C63.9636 112.011 69.9815 114.122 77.5106 114.122C78.913 114.122 80.3698 114.054 81.8674 113.917C86.8097 113.209 89.5463 110.609 93.0046 107.328C94.4069 105.993 95.9863 104.496 98.083 102.767C98.26 102.617 98.4234 102.467 98.5867 102.317C99.7576 101.214 101.106 100.057 102.508 98.8591C108.703 93.5356 115.047 88.2529 115.197 81.1867C115.17 79.1853 115.401 75.482 115.755 73.1811C116.463 68.6336 117.362 63.5007 113.482 59.212C113.305 59.0214 113.141 58.8171 112.978 58.6265L112.964 58.6129ZM111.099 72.405C110.691 74.8966 110.609 77.7285 110.459 80.6966C110.146 86.7553 104.509 90.9079 99.4309 95.2783C97.9877 96.5173 96.5989 97.7154 95.4961 98.7502C95.3191 98.9272 95.1285 99.0905 94.9379 99.2403C92.8548 100.956 91.2074 102.508 89.7505 103.897C86.5646 106.919 84.6449 108.744 81.3092 109.22C73.0585 109.983 67.0815 108.131 62.2209 104.605C58.9396 102.222 54.1063 95.6459 53.0443 84.1276C52.9899 83.4468 52.5269 80.4923 52.2683 78.7632C50.8659 69.328 57.6326 63.1604 62.9833 58.0819C63.1739 57.9049 63.3645 57.7416 63.5551 57.5782C68.8923 53.235 71.9012 51.0565 77.3881 51.0565C78.5453 51.0565 79.8252 51.1519 81.2547 51.3561C91.7247 52.527 105.231 56.7204 109.411 61.7172C109.56 61.8942 109.71 62.0712 109.86 62.2481C112.202 64.8895 111.875 67.7214 111.099 72.4186V72.405Z" fill="#FFDA00"/>
<path id="baseline" d="M372.046 104.809H374.156C375.054 104.809 375.803 104.509 376.402 103.937C377.001 103.366 377.301 102.617 377.301 101.705C377.301 100.792 377.001 100.044 376.416 99.4854C375.844 98.9271 375.082 98.6412 374.156 98.6412H370.534V108.471H372.046V104.809ZM372.046 99.9483H374.006C375.054 99.9483 375.762 100.683 375.762 101.705C375.762 102.726 375.054 103.502 374.006 103.502H372.046V99.9483ZM400.229 108.662C401.413 108.662 402.421 108.335 403.278 107.709C404.136 107.083 404.694 106.238 404.98 105.176H403.319C402.87 106.47 401.686 107.232 400.229 107.232C399.235 107.232 398.391 106.878 397.71 106.198C397.029 105.503 396.702 104.618 396.702 103.57C396.662 101.528 398.282 99.8666 400.229 99.9074C401.686 99.9074 402.884 100.683 403.319 101.977H404.953C404.654 100.929 404.095 100.084 403.251 99.4445C402.421 98.8046 401.413 98.4778 400.229 98.4778C397.274 98.4778 395.123 100.683 395.123 103.583C395.123 106.484 397.274 108.689 400.229 108.689V108.662ZM399.82 122.536V112.706H398.309V122.536H399.82ZM372.046 132.27H375.735V130.95H372.046V128.091H376.361V126.756H370.534V136.586H376.511V135.266H372.059V132.257L372.046 132.27ZM433.463 112.706V122.536H439.086V121.188H434.988V112.706H433.477H433.463ZM441.047 108.662C442.218 108.662 443.13 108.308 443.797 107.627C444.491 106.933 444.818 106.007 444.818 104.877V98.6548H443.32V104.863C443.32 106.361 442.504 107.26 441.047 107.26C439.59 107.26 438.773 106.375 438.773 104.877V98.6548H437.262V104.891C437.262 106.048 437.602 106.96 438.269 107.641C438.936 108.335 439.876 108.662 441.047 108.662ZM462.082 107.164H457.63V104.155H461.32V102.835H457.63V99.9891H461.946V98.6548H456.119V108.485H462.096V107.164H462.082ZM431.285 108.485H432.782V100.003H435.71V98.6548H428.357V100.003H431.285V108.485ZM422.408 106.347H426.833L427.609 108.485H429.215L425.566 98.6548H423.728L420.093 108.485H421.659L422.435 106.347H422.408ZM424.572 100.343H424.668L426.356 104.986H422.884L424.572 100.343ZM413.463 112.706V122.536H414.947V115.265H415.028L419.657 122.536H421.291V112.706H419.821V119.99H419.739L415.069 112.706H413.449H413.463ZM426.465 112.706L422.83 122.536H424.395L425.172 120.398H429.596L430.372 122.536H431.979L428.33 112.706H426.492H426.465ZM425.634 119.037L427.323 114.394H427.418L429.106 119.037H425.634ZM412.196 101.201H412.278L416.907 108.485H418.541V98.6548H417.071V105.939H416.989L412.319 98.6548H410.699V108.485H412.183V101.201H412.196ZM388.465 104.741H390.317L392.332 108.471H394.047L391.815 104.509C392.958 104.101 393.762 103.012 393.762 101.65C393.762 100.752 393.448 100.016 392.849 99.4717C392.25 98.9135 391.461 98.6276 390.467 98.6276H386.954V108.458H388.465V104.727V104.741ZM388.465 99.9483H390.331C391.515 99.9483 392.196 100.67 392.196 101.664C392.196 102.807 391.461 103.42 390.385 103.42H388.465V99.9483ZM442.095 132.624H445.635C445.581 133.428 445.24 134.068 444.627 134.585C444.015 135.089 443.252 135.347 442.354 135.347C441.305 135.347 440.448 134.993 439.781 134.313C439.127 133.618 438.8 132.733 438.8 131.671C438.8 130.609 439.127 129.738 439.781 129.044C440.434 128.349 441.278 128.009 442.34 128.009C443.797 128.009 444.886 128.744 445.376 129.901H447.051C446.751 128.921 446.18 128.118 445.335 127.505C444.505 126.893 443.511 126.579 442.34 126.579C439.413 126.539 437.166 128.826 437.221 131.685C437.221 134.626 439.386 136.791 442.34 136.791C444.478 136.791 446.22 135.729 446.969 133.7C447.214 133.033 447.337 132.311 447.337 131.494V131.372H442.109V132.652L442.095 132.624ZM435.873 129.779C435.873 128.88 435.56 128.145 434.961 127.6C434.362 127.042 433.572 126.756 432.578 126.756H429.065V136.586H430.577V132.856H432.428L434.43 136.586H436.145L433.912 132.624C435.056 132.216 435.859 131.127 435.859 129.779H435.873ZM432.496 131.535H430.577V128.063H432.442C433.626 128.063 434.307 128.785 434.307 129.779C434.307 130.923 433.572 131.535 432.496 131.535ZM422.68 132.27H426.37V130.95H422.68V128.091H426.996V126.756H421.169V136.586H427.146V135.266H422.694V132.257L422.68 132.27ZM452.565 108.485H454.281L452.048 104.523C453.191 104.114 453.995 103.025 453.995 101.664C453.995 100.765 453.681 100.03 453.082 99.4854C452.483 98.9271 451.694 98.6412 450.7 98.6412H447.187V108.471H448.698V104.741H450.55L452.551 108.471L452.565 108.485ZM448.698 99.9619H450.564C451.748 99.9619 452.429 100.683 452.429 101.677C452.429 102.821 451.694 103.434 450.618 103.434H448.698V99.9619ZM465.499 107.137V98.6548H463.988V108.485H469.611V107.137H465.513H465.499ZM455.601 134.04H455.52L450.85 126.756H449.229V136.586H450.713V129.316H450.795L455.424 136.586H457.058V126.756H455.588V134.04H455.601ZM415.178 134.748H415.096L412.333 126.77H410.685L414.307 136.6H415.981L419.671 126.77H417.983L415.178 134.748ZM461.115 132.27H464.805V130.95H461.115V128.091H465.431V126.756H459.604V136.586H465.581V135.266H461.129V132.257L461.115 132.27ZM396.444 119.636C396.689 118.982 396.811 118.247 396.811 117.43V117.307H391.583V118.587H395.123C395.069 119.391 394.728 120.031 394.116 120.548C393.503 121.052 392.74 121.31 391.842 121.31C390.793 121.31 389.936 120.956 389.269 120.276C388.615 119.581 388.288 118.696 388.288 117.634C388.288 116.572 388.615 115.701 389.269 115.007C389.922 114.312 390.766 113.972 391.828 113.972C393.285 113.972 394.374 114.707 394.864 115.864H396.539C396.239 114.884 395.668 114.081 394.824 113.468C393.993 112.855 392.999 112.542 391.828 112.542C388.901 112.501 386.654 114.789 386.709 117.648C386.709 120.589 388.874 122.74 391.828 122.74C393.966 122.74 395.709 121.678 396.457 119.649L396.444 119.636ZM382.584 109.533L381.794 111.48H382.869L384.136 109.533H382.57H382.584ZM379.425 122.549H385.402V121.229H380.95V118.22H384.639V116.899H380.95V114.04H385.266V112.706H379.438V122.536L379.425 122.549ZM383.074 106.361L383.85 108.499H385.456L381.807 98.6685H379.969L376.334 108.499H377.9L378.676 106.361H383.101H383.074ZM380.814 100.357H380.909L382.597 104.999H379.125L380.814 100.357ZM406.41 112.529C403.455 112.529 401.263 114.748 401.263 117.634C401.263 120.521 403.455 122.726 406.396 122.726C409.337 122.726 411.543 120.521 411.543 117.634C411.597 114.83 409.324 112.488 406.41 112.529ZM408.97 120.262C408.289 120.956 407.431 121.297 406.41 121.297C405.389 121.297 404.531 120.943 403.85 120.262C403.17 119.568 402.843 118.683 402.843 117.634C402.843 115.565 404.354 113.972 406.41 113.972C408.466 113.972 409.977 115.578 409.977 117.634C409.977 118.683 409.637 119.568 408.97 120.262ZM384.762 134.054H384.68L380.01 126.77H378.39V136.6H379.874V129.33H379.956L384.585 136.6H386.219V126.77H384.748V134.054H384.762ZM407.799 132.992C407.799 134.49 406.982 135.388 405.525 135.388C404.068 135.388 403.251 134.503 403.251 133.006V126.784H401.74V133.019C401.74 134.177 402.08 135.089 402.747 135.77C403.415 136.464 404.354 136.791 405.525 136.791C406.696 136.791 407.608 136.437 408.275 135.756C408.97 135.062 409.296 134.136 409.296 133.006V126.784H407.799V132.992ZM395.218 126.784L391.583 136.614H393.149L393.925 134.476H398.35L399.126 136.614H400.732L397.084 126.784H395.246H395.218ZM394.388 133.115L396.076 128.472H396.171L397.86 133.115H394.388ZM377.328 115.742C377.328 114.843 377.015 114.108 376.416 113.563C375.817 113.005 375.027 112.719 374.033 112.719H370.521V122.549H372.032V118.819H373.884L375.885 122.549H377.6L375.368 118.587C376.511 118.179 377.315 117.09 377.315 115.728L377.328 115.742ZM373.952 117.498H372.032V114.026H373.897C375.082 114.026 375.762 114.748 375.762 115.742C375.762 116.885 375.027 117.498 373.952 117.498Z" fill="black"/>
</g>
<defs>
<clipPath id="clip0_1_1981">
<rect width="500" height="160.181" fill="white"/>
</clipPath>
</defs>
</svg>
